<svg xmlns="http://www.w3.org/2000/svg" xmlns:xlink="http://www.w3.org/1999/xlink" width="24" height="24" viewBox="0 0 24 24"><defs><clipPath id="a"><path d="M17.019,22.5a1.985,1.985,0,0,1-.963-.25l-4.515-2.472a.086.086,0,0,0-.041-.011.084.084,0,0,0-.041.011L6.944,22.25a2.013,2.013,0,0,1-.963.25A2.04,2.04,0,0,1,4.4,21.728a2.209,2.209,0,0,1-.453-1.749L4.8,14.743a.1.1,0,0,0-.026-.082L1.126,10.953A2.2,2.2,0,0,1,.6,8.745a2.08,2.08,0,0,1,1.67-1.466l5.048-.764a.089.089,0,0,0,.067-.051L9.645,1.7a2.033,2.033,0,0,1,3.71,0l2.257,4.764a.089.089,0,0,0,.067.051l5.048.764A2.081,2.081,0,0,1,22.4,8.745a2.2,2.2,0,0,1-.523,2.208l-3.653,3.708a.1.1,0,0,0-.026.082l.862,5.236a2.209,2.209,0,0,1-.453,1.749A2.04,2.04,0,0,1,17.019,22.5Z" transform="translate(0.5 0.5)" fill="#dee0e3"/></clipPath><linearGradient id="b" x1="0.148" y1="0.855" x2="0.885" y2="0.157" gradientUnits="objectBoundingBox"><stop offset="0" stop-color="#364965"/><stop offset="1" stop-color="#364965" stop-opacity="0"/></linearGradient><linearGradient id="c" x1="0.148" y1="0.855" x2="0.885" y2="0.157" gradientUnits="objectBoundingBox"><stop offset="0" stop-color="#fff"/><stop offset="1" stop-color="#fff" stop-opacity="0"/></linearGradient></defs><rect width="24" height="24" fill="#fff" opacity="0"/><g clip-path="url(#a)"><path d="M17.019,22.5a1.985,1.985,0,0,1-.963-.25l-4.515-2.472a.086.086,0,0,0-.041-.011.084.084,0,0,0-.041.011L6.944,22.25a2.013,2.013,0,0,1-.963.25A2.04,2.04,0,0,1,4.4,21.728a2.209,2.209,0,0,1-.453-1.749L4.8,14.743a.1.1,0,0,0-.026-.082L1.126,10.953A2.2,2.2,0,0,1,.6,8.745a2.08,2.08,0,0,1,1.67-1.466l5.048-.764a.089.089,0,0,0,.067-.051L9.645,1.7a2.033,2.033,0,0,1,3.71,0l2.257,4.764a.089.089,0,0,0,.067.051l5.048.764A2.081,2.081,0,0,1,22.4,8.745a2.2,2.2,0,0,1-.523,2.208l-3.653,3.708a.1.1,0,0,0-.026.082l.862,5.236a2.209,2.209,0,0,1-.453,1.749A2.04,2.04,0,0,1,17.019,22.5Z" transform="translate(0.5 0.5)" fill="#dee0e3"/><ellipse cx="61.392" cy="61.392" rx="61.392" ry="61.392" transform="matrix(-0.996, -0.087, 0.087, -0.996, 87.317, 140.02)" opacity="0.06" fill="url(#b)"/><ellipse cx="74.552" cy="74.552" rx="74.552" ry="74.552" transform="matrix(-0.588, 0.809, -0.809, -0.588, 50.269, 28.643)" opacity="0.272" fill="url(#c)"/></g></svg>