<svg xmlns="http://www.w3.org/2000/svg" width="22" height="22" viewBox="0 0 22 22">
  <g id="ic_eatzmile_w" transform="translate(-49 -211.988)">
    <rect id="사각형_5794" data-name="사각형 5794" width="22" height="22" transform="translate(49 211.988)" fill="none"/>
    <path id="빼기_27" data-name="빼기 27" d="M20323.193,14358.989h-6.389a4.01,4.01,0,0,1-3.459-1.994l-3.184-5.5a4.007,4.007,0,0,1,0-4.01l3.184-5.5a4.009,4.009,0,0,1,3.459-2h6.389a4.026,4.026,0,0,1,3.465,2l3.184,5.5a4.026,4.026,0,0,1,0,4.01l-3.184,5.5A4.024,4.024,0,0,1,20323.193,14358.989Zm-.861-10.245v3.552a2.366,2.366,0,0,0,.051.551.462.462,0,0,0,.152.214.909.909,0,0,0,.275.123,1.838,1.838,0,0,0,.5.056,1.608,1.608,0,0,0,.51-.066c.275-.081.408-.361.408-.857v-5.883a3.3,3.3,0,0,0-.016-.372.837.837,0,0,0-.1-.286c-.1-.189-.377-.285-.832-.285s-.74.1-.857.285c-.465.583-1.35,1.73-2.428,3.148l-2.43-3.158-.066-.066a.661.661,0,0,0-.275-.143,1.542,1.542,0,0,0-.494-.066c-.449,0-.732.093-.838.275a.8.8,0,0,0-.1.28,3.118,3.118,0,0,0-.016.367v5.884a3.387,3.387,0,0,0,.016.382.761.761,0,0,0,.1.275c.107.19.383.286.816.286s.725-.1.832-.284a.774.774,0,0,0,.1-.271,3.147,3.147,0,0,0,.016-.368v-3.571c.035.041.268.354.689.929.371.513.678.924.842,1.128l.086.117a.93.93,0,0,0,.287.214.838.838,0,0,0,.438.112.888.888,0,0,0,.449-.122.994.994,0,0,0,.26-.188c.061-.074.125-.155.2-.25.09-.114.3-.4.652-.9s.607-.828.779-1.039Z" transform="translate(-20260 -14126.5)" fill="#fff"/>
  </g>
</svg>
