<svg xmlns="http://www.w3.org/2000/svg" width="24" height="24" viewBox="0 0 24 24">
  <g id="ic_nv_alarm_H24_w" transform="translate(-338 -58)">
    <rect id="사각형_4295" data-name="사각형 4295" width="24" height="24" transform="translate(338 58)" fill="none"/>
    <g id="사각형_4294" data-name="사각형 4294" transform="translate(341 61)" fill="none" stroke="#fff" stroke-width="2">
      <path d="M9,0H9a9,9,0,0,1,9,9v9a0,0,0,0,1,0,0H0a0,0,0,0,1,0,0V9A9,9,0,0,1,9,0Z" stroke="none"/>
      <path d="M9,1H9a8,8,0,0,1,8,8v8a0,0,0,0,1,0,0H1a0,0,0,0,1,0,0V9A8,8,0,0,1,9,1Z" fill="none"/>
    </g>
    <line id="선_1" data-name="선 1" x2="20" transform="translate(340 78)" fill="none" stroke="#fff" stroke-width="2"/>
    <path id="패스_14340" data-name="패스 14340" d="M6,4.5a3,3,0,1,1-6,0" transform="translate(347 73.5)" fill="none" stroke="#fff" stroke-width="2"/>
    <line id="선_3" data-name="선 3" y1="3" transform="translate(350 59)" fill="none" stroke="#fff" stroke-width="2"/>
  </g>
</svg>
