<svg xmlns="http://www.w3.org/2000/svg" width="24" height="26" viewBox="0 0 24 26">
  <g id="그룹_3748" data-name="그룹 3748" transform="translate(-311 -752.001)">
    <path id="패스_15080" data-name="패스 15080" d="M-10.318-8.893a.524.524,0,0,1-.463-.218.889.889,0,0,1-.15-.517.889.889,0,0,1,.15-.517.524.524,0,0,1,.463-.218H-2.74a.524.524,0,0,1,.463.218.889.889,0,0,1,.15.517.889.889,0,0,1-.15.517.524.524,0,0,1-.463.218h-2.9v.1a1.292,1.292,0,0,0,.245.81,2.616,2.616,0,0,0,.886.646q.654.327,1.206.578t1.165.524a.557.557,0,0,1,.334.415.888.888,0,0,1-.075.578.891.891,0,0,1-.409.408.636.636,0,0,1-.559.014q-.7-.313-1.247-.565t-1.179-.565a3.993,3.993,0,0,1-.906-.558,1.106,1.106,0,0,1-.334-.476h-.014a1.051,1.051,0,0,1-.341.517,4.183,4.183,0,0,1-.913.558q-.627.313-1.179.565t-1.247.565a.636.636,0,0,1-.559-.014.879.879,0,0,1-.409-.422.9.9,0,0,1-.089-.6.558.558,0,0,1,.348-.422q.613-.272,1.165-.524t1.206-.578a2.616,2.616,0,0,0,.886-.646,1.292,1.292,0,0,0,.245-.81v-.1Zm-1.363,6.505a.524.524,0,0,1-.463-.218.889.889,0,0,1-.15-.517.889.889,0,0,1,.15-.517.524.524,0,0,1,.463-.218h10.3a.524.524,0,0,1,.463.218.889.889,0,0,1,.15.517.889.889,0,0,1-.15.517.524.524,0,0,1-.463.218H-5.657V1.164a.622.622,0,0,1-.266.558,1.069,1.069,0,0,1-.606.177,1.069,1.069,0,0,1-.606-.177A.622.622,0,0,1-7.4,1.164V-2.388ZM2.766-5.722a1.3,1.3,0,0,1-.906-.245,1.218,1.218,0,0,1-.252-.885V-9.342a1.218,1.218,0,0,1,.252-.885,1.3,1.3,0,0,1,.906-.245H8.98a1.3,1.3,0,0,1,.906.245,1.218,1.218,0,0,1,.252.885v2.491a1.218,1.218,0,0,1-.252.885,1.3,1.3,0,0,1-.906.245ZM8.095-7.165a.277.277,0,0,0,.313-.313V-8.716a.277.277,0,0,0-.313-.313H3.652a.277.277,0,0,0-.313.313v1.238a.277.277,0,0,0,.313.313ZM.721-3.245a.524.524,0,0,1-.463-.218.866.866,0,0,1-.15-.5.889.889,0,0,1,.15-.517A.524.524,0,0,1,.721-4.7h10.3a.524.524,0,0,1,.463.218.889.889,0,0,1,.15.517.866.866,0,0,1-.15.5.524.524,0,0,1-.463.218h-4.1v1.606a.555.555,0,0,1-.252.51,1.154,1.154,0,0,1-.62.157,1.127,1.127,0,0,1-.606-.157.555.555,0,0,1-.252-.51V-3.245ZM9.771.157a.524.524,0,0,1,.463.218.889.889,0,0,1,.15.517.889.889,0,0,1-.15.517.524.524,0,0,1-.463.218H2.739a1.3,1.3,0,0,1-.906-.245A1.218,1.218,0,0,1,1.58.5V-1.612a.622.622,0,0,1,.266-.558,1.093,1.093,0,0,1,.62-.177,1.069,1.069,0,0,1,.606.177.622.622,0,0,1,.266.558V-.156a.277.277,0,0,0,.313.313Z" transform="translate(323.362 762.473)" fill="#fff"/>
    <path id="패스_15088" data-name="패스 15088" d="M-8.573,7.43a3.808,3.808,0,0,1,1.261.2,2.733,2.733,0,0,1,.954.551,2.385,2.385,0,0,1,.6.864,2.908,2.908,0,0,1,.211,1.123,2.908,2.908,0,0,1-.211,1.123,2.385,2.385,0,0,1-.6.864,2.733,2.733,0,0,1-.954.551,3.808,3.808,0,0,1-1.261.2,3.808,3.808,0,0,1-1.261-.2,2.733,2.733,0,0,1-.954-.551,2.385,2.385,0,0,1-.6-.864,2.908,2.908,0,0,1-.211-1.123,2.908,2.908,0,0,1,.211-1.123,2.385,2.385,0,0,1,.6-.864,2.733,2.733,0,0,1,.954-.551A3.808,3.808,0,0,1-8.573,7.43Zm-.872-2.15V4.341a.622.622,0,0,1,.266-.558,1.069,1.069,0,0,1,.606-.177,1.069,1.069,0,0,1,.606.177.622.622,0,0,1,.266.558V5.28h2.14A.524.524,0,0,1-5.1,5.5a.889.889,0,0,1,.15.517.889.889,0,0,1-.15.517.524.524,0,0,1-.463.218h-6.187a.524.524,0,0,1-.463-.218.889.889,0,0,1-.15-.517.889.889,0,0,1,.15-.517.524.524,0,0,1,.463-.218Zm.872,6.233a1.5,1.5,0,0,0,1.049-.361,1.269,1.269,0,0,0,.4-.987,1.269,1.269,0,0,0-.4-.987,1.5,1.5,0,0,0-1.049-.361,1.5,1.5,0,0,0-1.049.361,1.269,1.269,0,0,0-.4.987,1.269,1.269,0,0,0,.4.987A1.5,1.5,0,0,0-8.573,11.513ZM-2.44,7.784h1.281A.538.538,0,0,1-.682,8a.913.913,0,0,1,.15.531.946.946,0,0,1-.15.538.532.532,0,0,1-.477.225H-2.44v5.5a.622.622,0,0,1-.266.558,1.046,1.046,0,0,1-.593.177,1.069,1.069,0,0,1-.606-.177.622.622,0,0,1-.266-.558V4.368a.622.622,0,0,1,.266-.558A1.069,1.069,0,0,1-3.3,3.633a1.046,1.046,0,0,1,.593.177.622.622,0,0,1,.266.558ZM1.376,6.042a.524.524,0,0,1-.463-.218.889.889,0,0,1-.15-.517.913.913,0,0,1,.15-.531.524.524,0,0,1,.463-.218h4.1a1.3,1.3,0,0,1,.906.245,1.218,1.218,0,0,1,.252.885V7.2a7.14,7.14,0,0,1-.068,1.034,3.366,3.366,0,0,1-.252.878,3.489,3.489,0,0,1-.511.81,6.306,6.306,0,0,1-.859.83q-.532.436-1.288.939T1.866,12.82a.642.642,0,0,1-.593.061A.949.949,0,0,1,.8,12.52a1,1,0,0,1-.164-.572.586.586,0,0,1,.3-.517q.927-.558,1.588-.987t1.1-.769a4.98,4.98,0,0,0,.7-.626,2.271,2.271,0,0,0,.382-.578,2.032,2.032,0,0,0,.164-.606,6.743,6.743,0,0,0,.034-.721V6.355a.277.277,0,0,0-.313-.313Zm9.172,8.751a.622.622,0,0,1-.266.558,1.093,1.093,0,0,1-.62.177,1.069,1.069,0,0,1-.606-.177.622.622,0,0,1-.266-.558V4.368a.622.622,0,0,1,.266-.558,1.069,1.069,0,0,1,.606-.177,1.093,1.093,0,0,1,.62.177.622.622,0,0,1,.266.558Z" transform="translate(323.362 762.473)" fill="#fff"/>
  </g>
</svg>
