<svg xmlns="http://www.w3.org/2000/svg" width="24" height="24" viewBox="0 0 24 24">
  <g id="ic_nv_coupon_H24_w" transform="translate(-338 -58)">
    <rect id="사각형_4295" data-name="사각형 4295" width="24" height="24" transform="translate(338 58)" fill="none" opacity="0.5"/>
    <g id="빼기_57" data-name="빼기 57" transform="translate(-20135 -14299)" fill="none">
      <path d="M20495,14380h-20a2,2,0,0,1-2-2v-6a2,2,0,1,0,0-4v-6a2,2,0,0,1,2-2h20a2,2,0,0,1,2,2v6a2,2,0,1,0,0,4v6A2,2,0,0,1,20495,14380Z" stroke="none"/>
      <path d="M 20494.998046875 14378 L 20494.998046875 14378 C 20494.998046875 14377.9990234375 20495 14377.9990234375 20495 14377.9990234375 C 20495 14377.9990234375 20495 14377.9990234375 20495 14377.9990234375 L 20495 14373.4638671875 C 20493.8046875 14372.7705078125 20492.998046875 14371.4775390625 20492.998046875 14369.9990234375 C 20492.998046875 14368.521484375 20493.8046875 14367.2275390625 20495 14366.53515625 L 20495.001953125 14362.001953125 C 20495 14362.0009765625 20494.998046875 14361.998046875 20494.998046875 14361.998046875 L 20475.00390625 14361.9970703125 C 20475.001953125 14361.998046875 20475 14361.9990234375 20475 14361.9990234375 C 20475 14361.9990234375 20475 14361.9990234375 20475 14361.9990234375 L 20475 14366.5341796875 C 20476.1953125 14367.2275390625 20477.001953125 14368.5205078125 20477.001953125 14369.9990234375 C 20477.001953125 14371.4765625 20476.1953125 14372.7705078125 20475 14373.462890625 L 20474.998046875 14377.99609375 C 20475 14377.9970703125 20475.001953125 14378 20475.001953125 14378 L 20494.998046875 14378 M 20494.998046875 14380 L 20475.001953125 14380 C 20473.8984375 14380 20473 14379.1025390625 20473 14377.9990234375 L 20473 14372 C 20474.10546875 14371.9990234375 20475.001953125 14371.1015625 20475.001953125 14369.9990234375 C 20475.001953125 14368.8955078125 20474.103515625 14367.998046875 20473 14367.998046875 L 20473 14361.9990234375 C 20473 14360.8955078125 20473.8984375 14359.998046875 20475.001953125 14359.998046875 L 20494.998046875 14359.998046875 C 20496.1015625 14359.998046875 20497 14360.8955078125 20497 14361.9990234375 L 20497 14367.998046875 C 20495.89453125 14367.9990234375 20494.998046875 14368.896484375 20494.998046875 14369.9990234375 C 20494.998046875 14371.1025390625 20495.896484375 14372 20497 14372 L 20497 14377.9990234375 C 20497 14379.1025390625 20496.1015625 14380 20494.998046875 14380 Z" stroke="none" fill="#fff"/>
    </g>
    <rect id="사각형_5875" data-name="사각형 5875" width="2" height="4" transform="translate(346 62)" fill="#fff"/>
    <rect id="사각형_5876" data-name="사각형 5876" width="2" height="4" transform="translate(346 69)" fill="#fff"/>
    <rect id="사각형_5877" data-name="사각형 5877" width="2" height="4" transform="translate(346 76)" fill="#fff"/>
  </g>
</svg>
