<svg xmlns="http://www.w3.org/2000/svg" width="40" height="40" viewBox="0 0 40 40">
  <g id="트위터" transform="translate(0.101)">
    <g id="트위터-2" data-name="트위터" transform="translate(0 0)">
      <circle id="bg" cx="20" cy="20" r="20" transform="translate(-0.101 0)" fill="#55c3f1"/>
      <g id="Logo-2" transform="translate(10.899 12.005)">
        <path id="white_background" d="M18.055,5.336c.012.167.012.335.012.5A11.016,11.016,0,0,1,6.975,16.932v0A11.035,11.035,0,0,1,1,15.181a7.93,7.93,0,0,0,.928.056,7.827,7.827,0,0,0,4.841-1.672,3.9,3.9,0,0,1-3.642-2.707,3.886,3.886,0,0,0,1.76-.067A3.9,3.9,0,0,1,1.76,6.971V6.921a3.873,3.873,0,0,0,1.769.488A3.9,3.9,0,0,1,2.323,2.2a11.064,11.064,0,0,0,8.034,4.072A3.9,3.9,0,0,1,17,2.721a7.822,7.822,0,0,0,2.475-.946,3.913,3.913,0,0,1-1.714,2.156A7.752,7.752,0,0,0,20,3.317a7.919,7.919,0,0,1-1.945,2.019Z" transform="translate(-1 -1.497)" fill="#fff"/>
      </g>
    </g>
  </g>
</svg>
