<svg xmlns="http://www.w3.org/2000/svg" width="40" height="40" viewBox="0 0 40 40">
  <g id="블로그" transform="translate(0.299)">
    <g id="카카오톡" transform="translate(0 0)">
      <circle id="Bg" cx="20" cy="20" r="20" transform="translate(-0.299 0)" fill="#32b44a"/>
      <g id="_7f46f2b6e9ed994a9b56221f87878fc295ab1155c6be3439de558677827c0768c5675dd3612a0261d618758a8cf0c3be9a78295481ec829e23c8d458f59a0ac782c319411b20e7c3074a6d" data-name="7f46f2b6e9ed994a9b56221f87878fc295ab1155c6be3439de558677827c0768c5675dd3612a0261d618758a8cf0c3be9a78295481ec829e23c8d458f59a0ac782c319411b20e7c3074a6d" transform="translate(3.145 -1.429)">
        <g id="layer101-7" transform="translate(7.821 16.48)">
          <path id="path850-4" d="M18.44,17.692q0,.2,0,.408c0,.343-.005.686.007,1.028a1.267,1.267,0,0,0,.029.226.491.491,0,0,0,.125.228.393.393,0,0,0,.119.085.46.46,0,0,0,.1.031,1.03,1.03,0,0,1,.172.147l.064.065V24h2.1q-.02-2.326-.041-4.653-.064-.123-.124-.248a4.971,4.971,0,0,0-.245-.464,2,2,0,0,0-.869-.754c-.057-.025-.114-.05-.172-.071a3.629,3.629,0,0,0-.674-.163l-.23-.036-.36-.058Zm-4.675.24q0,1.023.009,2.046.005,1.086.012,2.172,0,.67.009,1.341l0,.465.33.008h.021l.084,0h.011l.094,0c.3.009.6.019.894.021h.011l.1,0a.7.7,0,0,0,.234-.047.47.47,0,0,0,.087-.047,1.53,1.53,0,0,0,.3.137,1.866,1.866,0,0,0,.223.058,2.066,2.066,0,0,0,.7.011,2.48,2.48,0,0,0,.626-.182,2.04,2.04,0,0,0,.293-.154,2.292,2.292,0,0,0,.663-.65,1.647,1.647,0,0,0,.094-.153,1.5,1.5,0,0,0,.153-.448,3.874,3.874,0,0,0,.044-1.038,3.367,3.367,0,0,0-.044-.342,1.97,1.97,0,0,0-.193-.569c-.031-.058-.066-.113-.1-.168a2.513,2.513,0,0,0-.553-.617,1.256,1.256,0,0,0-.114-.081,1.981,1.981,0,0,0-.562-.235,2.216,2.216,0,0,0-.222-.047,2.241,2.241,0,0,0-.741,0,1.919,1.919,0,0,0-.38.109v-1.72H13.764v.123Zm14.72,1.449A2.5,2.5,0,0,0,27.3,19.7a1.987,1.987,0,0,0-.716.713,2.051,2.051,0,0,0-.138.284,2.668,2.668,0,0,0-.162.619,2.241,2.241,0,0,0-.337-.77,2.456,2.456,0,0,0-.537-.567,2.708,2.708,0,0,0-.434-.269,2.772,2.772,0,0,0-1.121-.289,2.642,2.642,0,0,0-1.62.491,2.429,2.429,0,0,0-.557.551,2.078,2.078,0,0,0-.325.669,1.747,1.747,0,0,0-.055.3,4.42,4.42,0,0,0-.023.569,1.3,1.3,0,0,0,.014.154,1.674,1.674,0,0,0,.12.4c.032.076.068.15.1.223a2.849,2.849,0,0,0,.8.919,2.136,2.136,0,0,0,.645.316,2.8,2.8,0,0,0,.723.114c.095,0,.19,0,.285-.006a2.757,2.757,0,0,0,.847-.189c.04-.016.08-.033.118-.053a2.722,2.722,0,0,0,.477-.312,3.408,3.408,0,0,0,.376-.357,2.07,2.07,0,0,0,.2-.265,2.172,2.172,0,0,0,.284-.661,2.3,2.3,0,0,0,.18.69,1.643,1.643,0,0,0,.237.381,1.924,1.924,0,0,0,.455.393,3.322,3.322,0,0,0,.564.279,1.466,1.466,0,0,0,.262.074v1.939l.328-.014h.077l.071,0c.306-.012.612-.02.917-.04a1.679,1.679,0,0,0,.606-.154c.052-.026.1-.052.155-.08a2.439,2.439,0,0,0,.533-.415.862.862,0,0,0,.058-.064,2,2,0,0,0,.318-.5,1.481,1.481,0,0,0,.082-.252,3.745,3.745,0,0,0,.087-.681c.006-.116.01-.233.014-.349.017-.741.012-1.482.012-2.223,0-.182,0-.363,0-.545V19.462H29.2v.053a1.836,1.836,0,0,0-.719-.136Zm-4.6,1.981a.206.206,0,0,1,.071.011c.008.005.014.012.022.018a1.827,1.827,0,0,1,.226.233.134.134,0,0,1,.012.053.936.936,0,0,1-.005.14.479.479,0,0,1-.174.306.406.406,0,0,1-.16.079.377.377,0,0,1-.228-.012.447.447,0,0,1-.226-.179.431.431,0,0,1-.046-.1.423.423,0,0,1,.027-.3.441.441,0,0,1,.061-.094.349.349,0,0,1,.168-.132.332.332,0,0,1,.069-.015,1.042,1.042,0,0,1,.146-.009h.036Zm4.933,0a.363.363,0,0,1,.113.017.405.405,0,0,1,.242.216.469.469,0,0,1,.035.093.41.41,0,0,1-.008.235.316.316,0,0,1-.045.083l-.006.008a.482.482,0,0,1-.187.142.678.678,0,0,1-.16.049.29.29,0,0,1-.106-.023c-.038-.015-.076-.033-.112-.051a.366.366,0,0,1-.139-.172.463.463,0,0,1-.022-.285.375.375,0,0,1,.057-.125.408.408,0,0,1,.28-.184A.36.36,0,0,1,28.823,21.366Zm-12.507.067a.323.323,0,0,1,.124.025.364.364,0,0,1,.2.2.369.369,0,0,1,.021.152.4.4,0,0,1-.075.21.427.427,0,0,1-.176.11.577.577,0,0,1-.238.027.243.243,0,0,1-.157-.092.373.373,0,0,1-.086-.208.422.422,0,0,1,.051-.251.3.3,0,0,1,.112-.113A.44.44,0,0,1,16.316,21.433Z" transform="translate(-13.764 -17.548)" fill="#32b44a"/>
        </g>
        <g id="layer101-3" transform="translate(5.557 12.43)">
          <path id="path850-2" d="M16.348,32.76A18.957,18.957,0,0,1,15.2,30.271l-1-2.354H11.241c-1.715,0-3.1-.025-3.294-.061a3.339,3.339,0,0,1-1.512-.8,3.361,3.361,0,0,1-.811-1.463c-.049-.221-.068-1.93-.068-5.439a46.425,46.425,0,0,1,.092-5.482A2.955,2.955,0,0,1,8.015,12.5c.553-.092,16.537-.092,17.084,0a2.924,2.924,0,0,1,2.335,2c.117.387.123.565.123,5.635,0,3.3-.025,5.328-.068,5.5a3.181,3.181,0,0,1-1.456,1.9c-.682.363-.848.381-4.105.381H18.972l-1,2.354c-.553,1.291-1.045,2.391-1.1,2.446A.341.341,0,0,1,16.348,32.76Zm7.645-8.376a2.034,2.034,0,0,0,.535-.449c.363-.479.387-.658.387-3.036V18.761H23.624v.387l-.135-.123a1.453,1.453,0,0,0-1.315-.307,1.835,1.835,0,0,0-1.5,2.034,1.65,1.65,0,0,0,.959,1.764,1.457,1.457,0,0,0,.75.2,1.732,1.732,0,0,0,1.026-.277l.172-.135-.043.27a.812.812,0,0,1-.86.8h-.283v1.241l.633-.025A1.7,1.7,0,0,0,23.992,24.384ZM11.493,22.5a1.875,1.875,0,0,0,.848-.842,3.186,3.186,0,0,0,.012-1.782,2.042,2.042,0,0,0-.8-.977,1.71,1.71,0,0,0-1.862.129l-.141.123V17.1H8.2l.012,2.722L8.23,22.54l.664.018c.627.018.658.012.658-.111,0-.154.018-.154.3.031A1.683,1.683,0,0,0,11.493,22.5Zm7.2.061a2.461,2.461,0,0,0,1.088-.934,1.969,1.969,0,0,0-1.542-2.864,2.214,2.214,0,0,0-2.323,1.051,1.631,1.631,0,0,0-.2.8,1.36,1.36,0,0,0,.141.842,2.372,2.372,0,0,0,.953,1.026A2.439,2.439,0,0,0,18.689,22.559Zm-3.865-2.1-.018-2.1-.2-.412a1.794,1.794,0,0,0-1.469-1l-.264-.043v.682c0,.584.012.682.1.682a.714.714,0,0,1,.307.209l.209.209v3.884h1.358Z" transform="translate(-5.557 -12.43)" fill="#fff"/>
          <path id="path852-8" d="M77.216,46.234a.789.789,0,0,1-.325-1.115.773.773,0,1,1,.9,1.139A.62.62,0,0,1,77.216,46.234Z" transform="translate(-60.234 -37.232)" fill="#fff"/>
          <path id="path854-7" d="M23.358,46.387a.757.757,0,0,1,.086-1.28.73.73,0,0,1,.974,1.011A.809.809,0,0,1,23.358,46.387Z" transform="translate(-18.983 -37.453)" fill="#fff"/>
          <path id="path856-9" d="M55.443,46.188a.781.781,0,0,1-.245-1.109.742.742,0,0,1,.711-.361.553.553,0,0,1,.5.239.567.567,0,0,1,.239.5A.8.8,0,0,1,55.443,46.188Z" transform="translate(-43.563 -37.217)" fill="#fff"/>
        </g>
      </g>
    </g>
  </g>
</svg>
