<svg xmlns="http://www.w3.org/2000/svg" width="90" height="90" viewBox="0 0 90 90">
  <g id="_icon" data-name="+icon" transform="translate(-39.577 -6.488)">
    <rect id="area" width="90" height="90" transform="translate(39.577 6.488)" fill="none" opacity="0.1"/>
    <g id="Group_863" data-name="Group 863" transform="translate(-9713.816 -2041.095)">
      <g id="Group_2713" data-name="Group 2713" transform="translate(9760.393 2057.583)">
        <path id="말풍선" d="M17.341,62.055a1.989,1.989,0,0,1-.84.421l-9.13,2.153a2,2,0,0,1-2.42-2.338l1.832-9.2.008-.038a32.954,32.954,0,1,1,10.55,9Z" transform="translate(0.001 0)" fill="#dde0e3" opacity="0.5"/>
        <g id="_._._._" data-name=". . . " transform="translate(18.352 30.908)">
          <circle id="Ellipse_621" data-name="Ellipse 621" cx="3" cy="3" r="3" transform="translate(11.648 0.091)" fill="#dde0e3"/>
          <circle id="Ellipse_622" data-name="Ellipse 622" cx="3" cy="3" r="3" transform="translate(-0.352 0.091)" fill="#dde0e3"/>
          <circle id="Ellipse_623" data-name="Ellipse 623" cx="3" cy="3" r="3" transform="translate(23.648 0.091)" fill="#dde0e3"/>
        </g>
      </g>
      <g id="check" transform="translate(9804.824 2095.253)">
        <circle id="Ellipse_620" data-name="Ellipse 620" cx="16" cy="16" r="16" transform="translate(-0.431 0.33)" fill="#c2c7cc"/>
        <text id="_" data-name="!" transform="translate(15.569 21.33)" fill="#eff1f3" font-size="15" font-family="Pretendard-Bold, Pretendard" font-weight="700" letter-spacing="-0.025em"><tspan x="-2.295" y="0">!</tspan></text>
      </g>
    </g>
  </g>
</svg>
