<svg id="Q" xmlns="http://www.w3.org/2000/svg" width="22" height="22" viewBox="0 0 22 22">
  <circle id="타원_252" data-name="타원 252" cx="11" cy="11" r="11" fill="#c2c7cc" opacity="0"/>
  <g id="그룹_3487" data-name="그룹 3487">
    <path id="패스_15101" data-name="패스 15101" d="M8.284-4.38A5.7,5.7,0,0,1,7.868-2.1,3.707,3.707,0,0,1,6.7-.578L8.29.66,7.249,1.6,5.281.044A3.986,3.986,0,0,1,4.45.127a3.69,3.69,0,0,1-2-.549A3.606,3.606,0,0,1,1.095-1.987,5.493,5.493,0,0,1,.609-4.329V-4.85a5.622,5.622,0,0,1,.479-2.387A3.6,3.6,0,0,1,2.441-8.82a3.67,3.67,0,0,1,2-.549,3.737,3.737,0,0,1,2.015.543A3.556,3.556,0,0,1,7.8-7.265a5.61,5.61,0,0,1,.482,2.371ZM6.671-4.862A4.013,4.013,0,0,0,6.087-7.23a1.918,1.918,0,0,0-1.65-.806,1.888,1.888,0,0,0-1.622.816,3.95,3.95,0,0,0-.6,2.3v.54A4.054,4.054,0,0,0,2.8-2.038a1.892,1.892,0,0,0,1.647.844A1.9,1.9,0,0,0,6.1-2.006,4.1,4.1,0,0,0,6.671-4.38Z" transform="translate(6.5 15)" fill="#fff"/>
    <rect id="사각형_5518" data-name="사각형 5518" width="12" height="12" transform="translate(5 5)" fill="#fff" opacity="0"/>
  </g>
</svg>
