<svg xmlns="http://www.w3.org/2000/svg" width="44" height="45" viewBox="0 0 44 45">
  <g id="그룹_3737" data-name="그룹 3737" transform="translate(2.368 2.353)">
    <path id="패스_15229" data-name="패스 15229" d="M3363.253,1906.279a3.628,3.628,0,0,1-2.537-1.025,3.58,3.58,0,0,1-.927-3.69l2.277-7.08a21.78,21.78,0,0,1,3.262-26.8,22.093,22.093,0,0,1,31.112,0,21.778,21.778,0,0,1,0,30.928,22.129,22.129,0,0,1-24.069,4.708l-7.917,2.756A3.657,3.657,0,0,1,3363.253,1906.279Z" transform="translate(-3361.252 -1863.632)" fill="#1cac68"/>
    <path id="패스_15230" data-name="패스 15230" d="M3398.635,1873.232a19.717,19.717,0,0,0-27.765,0,19.433,19.433,0,0,0-2.34,24.8l-2.617,8.136a1.256,1.256,0,0,0,.324,1.289,1.276,1.276,0,0,0,1.3.287l8.806-3.065a19.541,19.541,0,0,0,22.287-31.442Zm-13.883,30.792a17,17,0,0,1-7.746-1.84,1.279,1.279,0,0,0-1-.067l-6.9,2.4,2.033-6.324a1.255,1.255,0,0,0-.185-1.13,16.792,16.792,0,0,1-3.3-10.034,17.095,17.095,0,1,1,17.094,16.992Z" transform="translate(-3365.12 -1867.516)" fill="#fff"/>
    <g id="그룹_3736" data-name="그룹 3736" transform="translate(9.141 11.72)">
      <path id="패스_15231" data-name="패스 15231" d="M3427.331,1903.827a2.624,2.624,0,1,0-2.64-2.625A2.633,2.633,0,0,0,3427.331,1903.827Z" transform="translate(-3411.221 -1898.578)" fill="#fff"/>
      <path id="패스_15232" data-name="패스 15232" d="M3397.871,1903.827a2.624,2.624,0,1,0-2.64-2.625A2.633,2.633,0,0,0,3397.871,1903.827Z" transform="translate(-3392.943 -1898.578)" fill="#fff"/>
      <path id="패스_15233" data-name="패스 15233" d="M3409.558,1928.679a1.564,1.564,0,0,0-.816-.195H3390.7a1.561,1.561,0,0,0-.845.211,1.391,1.391,0,0,0-.44,1.924,12.2,12.2,0,0,0,19.606,1.36,10.77,10.77,0,0,0,1.017-1.387A1.39,1.39,0,0,0,3409.558,1928.679Z" transform="translate(-3389.203 -1917.2)" fill="#fff"/>
    </g>
  </g>
</svg>
