<svg xmlns="http://www.w3.org/2000/svg" width="44" height="45" viewBox="0 0 44 45">
  <g id="그룹_3740" data-name="그룹 3740" transform="translate(2.367 2.353)">
    <path id="패스_15234" data-name="패스 15234" d="M3536.175,1906.279a3.628,3.628,0,0,1-2.537-1.025,3.58,3.58,0,0,1-.927-3.69l2.277-7.08a21.779,21.779,0,0,1,3.261-26.8,22.093,22.093,0,0,1,31.112,0,21.777,21.777,0,0,1,0,30.928,22.128,22.128,0,0,1-24.068,4.708l-7.917,2.755A3.653,3.653,0,0,1,3536.175,1906.279Z" transform="translate(-3534.172 -1863.632)" fill="#2d7dce"/>
    <path id="패스_15235" data-name="패스 15235" d="M3571.557,1873.232a19.716,19.716,0,0,0-27.765,0,19.432,19.432,0,0,0-2.341,24.8l-2.617,8.136a1.256,1.256,0,0,0,.324,1.288,1.274,1.274,0,0,0,1.3.287l8.807-3.065a19.541,19.541,0,0,0,22.287-31.442Zm-13.883,30.792a17,17,0,0,1-7.746-1.84,1.278,1.278,0,0,0-1-.067l-6.9,2.4,2.034-6.324a1.256,1.256,0,0,0-.186-1.13,16.79,16.79,0,0,1-3.3-10.034,17.094,17.094,0,1,1,17.094,16.992Z" transform="translate(-3538.041 -1867.516)" fill="#fff"/>
    <g id="그룹_3739" data-name="그룹 3739" transform="translate(9.098 11.683)">
      <path id="패스_15236" data-name="패스 15236" d="M3582.4,1928.61a1.407,1.407,0,0,0-1.911.454,11.966,11.966,0,0,1-.771,1.045,9.346,9.346,0,0,1-.909.928,9.393,9.393,0,0,1-14.2-1.973,1.411,1.411,0,0,0-1.938-.438,1.392,1.392,0,0,0-.441,1.927,12.2,12.2,0,0,0,19.636,1.361,10.921,10.921,0,0,0,1.018-1.386A1.393,1.393,0,0,0,3582.4,1928.61Z" transform="translate(-3562.011 -1917.117)" fill="#fff" fill-rule="evenodd"/>
      <path id="패스_15237" data-name="패스 15237" d="M3600.2,1903.734a2.627,2.627,0,1,0-2.644-2.63A2.637,2.637,0,0,0,3600.2,1903.734Z" transform="translate(-3584.062 -1898.479)" fill="#fff" fill-rule="evenodd"/>
      <path id="패스_15238" data-name="패스 15238" d="M3570.693,1903.734a2.627,2.627,0,1,0-2.645-2.63A2.637,2.637,0,0,0,3570.693,1903.734Z" transform="translate(-3565.757 -1898.479)" fill="#fff" fill-rule="evenodd"/>
    </g>
  </g>
</svg>
