<svg xmlns="http://www.w3.org/2000/svg" width="44" height="45" viewBox="0 0 44 45">
  <g id="ic_불가" transform="translate(-3960.118 -1861.279)">
    <path id="패스_15244" data-name="패스 15244" d="M3964.487,1906.279a3.629,3.629,0,0,1-2.537-1.025,3.58,3.58,0,0,1-.927-3.69l2.277-7.08a21.78,21.78,0,0,1,3.261-26.8,22.093,22.093,0,0,1,31.112,0,21.777,21.777,0,0,1,0,30.928,22.128,22.128,0,0,1-24.068,4.708l-7.917,2.755A3.653,3.653,0,0,1,3964.487,1906.279Z" fill="#444"/>
    <g id="그룹_3756" data-name="그룹 3756" transform="translate(3962.484 1863.646)">
      <path id="패스_15256" data-name="패스 15256" d="M6096.362,490.434a19.725,19.725,0,0,0-27.765,0,19.41,19.41,0,0,0-2.341,24.778l-2.616,8.131a1.255,1.255,0,0,0,.323,1.288,1.275,1.275,0,0,0,1.3.286l8.807-3.062a19.752,19.752,0,0,0,22.287-3.84,19.412,19.412,0,0,0,0-27.581Zm-13.883,30.771a17,17,0,0,1-7.746-1.839,1.278,1.278,0,0,0-1-.067l-6.9,2.4,2.034-6.32a1.254,1.254,0,0,0-.186-1.129,16.774,16.774,0,0,1-3.3-10.027,17.094,17.094,0,1,1,17.094,16.981Z" transform="translate(-6062.847 -484.722)" fill="#fff"/>
      <g id="그룹_4021" data-name="그룹 4021" transform="translate(11.314 12.633)">
        <path id="패스_15243" data-name="패스 15243" d="M3816.687,1934.576h-9.051a1.413,1.413,0,1,0,0,2.825h9.051a1.413,1.413,0,1,0,0-2.825Z" transform="translate(-3803.842 -1921.947)" fill="#fff" fill-rule="evenodd"/>
        <path id="합치기_181" data-name="합치기 181" d="M16995.248,12279.03l-1.119-1.158-1.139,1.137c-.371.371-1.121.227-1.672-.319s-.7-1.306-.324-1.677l1.172-1.172-1.15-1.191c-.367-.38-.209-1.131.35-1.668s1.318-.674,1.686-.294l1.115,1.154,1.133-1.133c.371-.372,1.127-.227,1.676.324s.7,1.3.32,1.672l-1.168,1.169,1.152,1.194c.361.375.2,1.126-.355,1.668a1.688,1.688,0,0,1-1.117.508A.753.753,0,0,1,16995.248,12279.03Z" transform="translate(-16991.773 -12272.824)" fill="#fff" stroke="rgba(0,0,0,0)" stroke-miterlimit="10" stroke-width="1"/>
        <path id="합치기_180" data-name="합치기 180" d="M16995.3,12278.979l-1.154-1.154-1.154,1.154c-.371.371-1.121.226-1.672-.324s-.7-1.3-.324-1.673l1.154-1.153-1.154-1.154c-.371-.371-.225-1.126.32-1.676s1.3-.7,1.676-.32l1.154,1.154,1.154-1.154c.371-.375,1.127-.23,1.676.32s.7,1.3.32,1.676l-1.154,1.154,1.154,1.153c.371.372.227,1.127-.32,1.673a1.676,1.676,0,0,1-1.127.529A.756.756,0,0,1,16995.3,12278.979Z" transform="translate(-16979.773 -12272.793)" fill="#fff" stroke="rgba(0,0,0,0)" stroke-miterlimit="10" stroke-width="1"/>
      </g>
    </g>
  </g>
</svg>
