<svg xmlns="http://www.w3.org/2000/svg" width="24" height="24" viewBox="0 0 24 24">
  <g id="ic_delevery_on_h24_" data-name="ic_delevery_on(h24)" transform="translate(-0.402 0)">
    <rect id="area" width="24" height="24" transform="translate(0.402 0)" fill="none"/>
    <g id="ic_배달" transform="translate(4.548 1.925)">
      <path id="패스_14669" data-name="패스 14669" d="M6.239,8.62A6.217,6.217,0,0,0,.75,14.65V19.2a2.6,2.6,0,0,0,2.675,2.53H6.239" transform="translate(-0.75 -4.074)" fill="none" stroke="#fff" stroke-width="1.5"/>
      <path id="패스_14670" data-name="패스 14670" d="M16.53,8.62a6.217,6.217,0,0,1,5.489,6.03V19.2a2.6,2.6,0,0,1-2.675,2.53H17.285" transform="translate(-7.609 -4.074)" fill="none" stroke="#fff" stroke-width="1.5"/>
      <path id="패스_14671" data-name="패스 14671" d="M12.4,29.944v.477a2.136,2.136,0,0,1-2.061,2.2,2.133,2.133,0,0,1-2.056-2.2V26.593a2.133,2.133,0,0,1,2.056-2.2,2.136,2.136,0,0,1,2.061,2.2v3.35" transform="translate(-2.898 -12.314)" fill="none" stroke="#fff" stroke-width="1.5"/>
      <path id="패스_14622" data-name="패스 14622" d="M9.914,3.293h2.417" transform="translate(0.656 -0.331)" fill="none" stroke="#fff" stroke-linecap="round" stroke-width="1.5"/>
      <path id="패스_14668" data-name="패스 14668" d="M9.914,3.293h2.417" transform="translate(-8.49 -0.331)" fill="none" stroke="#fff" stroke-linecap="round" stroke-width="1.5"/>
      <path id="패스_14672" data-name="패스 14672" d="M8.676,4.922A2.677,2.677,0,0,1,8.27,3.495a2.745,2.745,0,0,1,5.489,0,2.677,2.677,0,0,1-.406,1.427,2.38,2.38,0,0,1-.29.395,1.043,1.043,0,0,1-.11.116,2.734,2.734,0,0,1-3.987-.116,2.38,2.38,0,0,1-.29-.395" transform="translate(-3.81 -0.75)" fill="none" stroke="#fff" stroke-miterlimit="10" stroke-width="1.5"/>
    </g>
  </g>
</svg>
