<svg xmlns="http://www.w3.org/2000/svg" width="24" height="24" viewBox="0 0 24 24">
  <g id="ic_pickup_off_h24_" data-name="ic_pickup_off(h24)" transform="translate(-3.106 -3.192)">
    <rect id="area" width="24" height="24" transform="translate(3.106 3.192)" fill="none"/>
    <g id="그룹_140" data-name="그룹 140" transform="translate(6.489 5.803)">
      <g id="합치기_37" data-name="합치기 37" transform="translate(2.616 0.389)" fill="none" stroke-linecap="round" stroke-linejoin="round">
        <path d="M2.783,18V6.517L0,0H12.218L15,6.517V16a2,2,0,0,1-2,2Z" stroke="none"/>
        <path d="M 12.99960041046143 16.5 C 13.27519035339355 16.5 13.49940013885498 16.275390625 13.49940013885498 15.99930000305176 L 13.49940013885498 6.823656558990479 L 11.22686576843262 1.5 L 2.27154541015625 1.5 L 4.162290096282959 5.927840232849121 C 4.241809844970703 6.114049911499023 4.282800197601318 6.314430236816406 4.282800197601318 6.516900062561035 L 4.282800197601318 16.5 L 12.99960041046143 16.5 M 12.99960041046143 18 L 2.782799959182739 18 L 2.782799959182739 6.516900062561035 L 6.942748598248727e-08 0 L 12.21749973297119 0 L 14.99940013885498 6.516900062561035 L 14.99940013885498 15.99930000305176 C 14.99940013885498 17.10449981689453 14.10389995574951 18 12.99960041046143 18 Z" stroke="none" fill="#000"/>
      </g>
      <path id="패스_14723" data-name="패스 14723" d="M173.745,592.264h3" transform="translate(-165 -587.966)" fill="none" stroke="#000" stroke-linecap="round" stroke-width="1.5"/>
    </g>
    <path id="패스_14724" data-name="패스 14724" d="M7,12H2.635A1.471,1.471,0,0,1,1,10.313V1.425l2.664-6.3" transform="translate(6.106 11.442)" fill="none" stroke="#000" stroke-width="1.5"/>
  </g>
</svg>
