<svg xmlns="http://www.w3.org/2000/svg" xmlns:xlink="http://www.w3.org/1999/xlink" width="1110" height="216" viewBox="0 0 1110 216">
  <defs>
    <clipPath id="clip-path">
      <rect id="crop" width="1110" height="216" transform="translate(-10 303)" fill="#fdcd00"/>
    </clipPath>
  </defs>
  <g id="bg_Pattern" transform="translate(10 -303)" clip-path="url(#clip-path)">
    <rect id="bg" width="1110" height="216" transform="translate(-10 303)" fill="#3f85aa" opacity="0.1"/>
    <path id="말풍선" d="M35.1,16.618H13.925V38.846A84.47,84.47,0,0,0,0,85.406v4.551C0,137.11,38.594,175.35,86.2,175.35s86.193-38.239,86.193-85.393V85.406C172.389,38.235,133.8,0,86.2,0A86.32,86.32,0,0,0,35.1,16.618Z" transform="translate(222.555 402.522) rotate(180)" fill="#62adce" opacity="0.05"/>
    <path id="heart" d="M37.768,68.186,68.186,37.768A21.509,21.509,0,0,0,37.768,7.348l-.041.041c-.323-.371-.655-.736-1.009-1.089A21.509,21.509,0,0,0,6.3,36.718c.353.353.718.686,1.089,1.009l-.041.041Z" transform="matrix(0.966, -0.259, 0.259, 0.966, 346.9, 401.801)" fill="#62adce" opacity="0.1"/>
    <path id="heart-2" data-name="heart" d="M15.207,27.454,27.454,15.207A8.66,8.66,0,0,0,15.207,2.959l-.016.016c-.13-.149-.264-.3-.406-.439A8.66,8.66,0,1,0,2.537,14.784c.142.142.289.276.439.406l-.016.016Z" transform="translate(892.576 332.847) rotate(30)" fill="#62adce" opacity="0.1"/>
    <path id="heart-3" data-name="heart" d="M85.975,155.221l69.245-69.245A48.964,48.964,0,0,0,85.975,16.728l-.092.092c-.735-.844-1.492-1.675-2.3-2.479A48.964,48.964,0,0,0,14.341,83.586c.8.8,1.635,1.562,2.479,2.3l-.092.092Z" transform="translate(868.531 420.522)" fill="#62adce" opacity="0.05"/>
    <path id="말풍선-2" data-name="말풍선" d="M21.868,98.986H8.675V85.125A52.714,52.714,0,0,1,0,56.09V53.252C0,23.847,24.042,0,53.7,0s53.692,23.847,53.692,53.252V56.09c0,29.415-24.039,53.26-53.692,53.26A53.735,53.735,0,0,1,21.868,98.986Z" transform="matrix(0.985, 0.174, -0.174, 0.985, 650.746, 282.875)" fill="#62adce" opacity="0.1"/>
    <path id="말풍선-3" data-name="말풍선" d="M6.55,29.816H2.6V25.641A15.941,15.941,0,0,1,0,16.895V16.04a16.084,16.084,0,0,1,32.167,0v.855A16.092,16.092,0,0,1,6.55,29.816Z" transform="matrix(-0.485, -0.875, 0.875, -0.485, 201.878, 489.715)" fill="#62adce" opacity="0.05"/>
  </g>
</svg>
