<svg id="ic_pw_h16" xmlns="http://www.w3.org/2000/svg" width="16" height="16" viewBox="0 0 16 16">
  <rect id="area" width="16" height="16" fill="none" opacity="0.2"/>
  <g id="ic_pw" transform="translate(1 1)">
    <path id="Path_14685" data-name="Path 14685" d="M6,9.3V7.672A3.09,3.09,0,0,0,3,4.5,3.09,3.09,0,0,0,0,7.672V9.3" transform="translate(4 -4.5)" fill="none" stroke="#c2c7cc" stroke-width="1.5"/>
    <g id="Rectangle_5081" data-name="Rectangle 5081" transform="translate(0 3)" fill="#fff" stroke="#c2c7cc" stroke-width="1.5">
      <path d="M3,0h8a3,3,0,0,1,3,3V7a5,5,0,0,1-5,5H5A5,5,0,0,1,0,7V3A3,3,0,0,1,3,0Z" stroke="none"/>
      <path d="M3,.75h8A2.25,2.25,0,0,1,13.25,3V7A4.25,4.25,0,0,1,9,11.25H5A4.25,4.25,0,0,1,.75,7V3A2.25,2.25,0,0,1,3,.75Z" fill="none"/>
    </g>
    <path id="Path_14686" data-name="Path 14686" d="M2169.794,351.43v2" transform="translate(-2162.794 -343.43)" fill="none" stroke="#c2c7cc" stroke-linecap="round" stroke-width="1.5"/>
  </g>
</svg>
