<svg id="ic_id_h16" xmlns="http://www.w3.org/2000/svg" width="16" height="16" viewBox="0 0 16 16">
  <rect id="area" width="16" height="16" fill="none" opacity="0.2"/>
  <rect id="Rectangle_4524" data-name="Rectangle 4524" width="16" height="16" fill="none"/>
  <g id="Group_911" data-name="Group 911" transform="translate(1)">
    <g id="Ellipse_356" data-name="Ellipse 356" transform="translate(3)" fill="#fff" stroke="#c2c7cc" stroke-width="1.5">
      <circle cx="4" cy="4" r="4" stroke="none"/>
      <circle cx="4" cy="4" r="3.25" fill="none"/>
    </g>
    <g id="Path_14441" data-name="Path 14441" transform="translate(0 9)" fill="#fff">
      <path d="M 7.000000476837158 5.881579399108887 C 4.961530685424805 5.881579399108887 3.390110492706299 5.665919303894043 2.329380512237549 5.240599155426025 C 0.9137204885482788 4.672959327697754 0.7500004768371582 3.870219230651855 0.7500004768371582 3.315789222717285 C 0.7500004768371582 2.761359214782715 0.9137204885482788 1.958619236946106 2.329380512237549 1.390979170799255 C 3.390110492706299 0.9656592011451721 4.961530685424805 0.7499992251396179 7.000000476837158 0.7499992251396179 C 9.038470268249512 0.7499992251396179 10.60990047454834 0.9656592011451721 11.67062091827393 1.390979170799255 C 13.08628082275391 1.958619236946106 13.25 2.761359214782715 13.25 3.315789222717285 C 13.25 3.870219230651855 13.08628082275391 4.672959327697754 11.67062091827393 5.240599155426025 C 10.60990047454834 5.665919303894043 9.038470268249512 5.881579399108887 7.000000476837158 5.881579399108887 Z" stroke="none"/>
      <path d="M 7.000000476837158 1.499999046325684 C 5.057590484619141 1.499999046325684 3.580080032348633 1.697529315948486 2.60851001739502 2.087099075317383 C 1.500000953674316 2.531589031219482 1.500000953674316 3.041729211807251 1.500000953674316 3.315789222717285 C 1.500000953674316 3.589849233627319 1.500000953674316 4.09998893737793 2.60851001739502 4.544479370117188 C 3.580080032348633 4.934049129486084 5.057590484619141 5.131579399108887 7.000000476837158 5.131579399108887 C 8.942410469055176 5.131579399108887 10.41991996765137 4.934049129486084 11.3914909362793 4.544479370117188 C 12.5 4.09998893737793 12.5 3.589849233627319 12.5 3.315789222717285 C 12.5 3.041729211807251 12.5 2.531589031219482 11.3914909362793 2.087099075317383 C 10.41991996765137 1.697529315948486 8.942410469055176 1.499999046325684 7.000000476837158 1.499999046325684 M 7.000000476837158 -9.5367431640625e-07 C 10.86599063873291 -9.5367431640625e-07 14 0.7476892471313477 14 3.315789222717285 C 14 5.883889198303223 10.86599063873291 6.631579399108887 7.000000476837158 6.631579399108887 C 3.134010314941406 6.631579399108887 9.5367431640625e-07 5.883889198303223 9.5367431640625e-07 3.315789222717285 C 9.5367431640625e-07 0.7476892471313477 3.134010314941406 -9.5367431640625e-07 7.000000476837158 -9.5367431640625e-07 Z" stroke="none" fill="#c2c7cc"/>
    </g>
  </g>
</svg>
