<svg xmlns="http://www.w3.org/2000/svg" width="36" height="36" viewBox="0 0 36 36">
  <g id="ic_lpoint_h36" transform="translate(-9753.885 -2047.984)">
    <rect id="사각형_4426" data-name="사각형 4426" width="36" height="36" transform="translate(9753.885 2047.984)" fill="#fff" opacity="0"/>
    <g id="ic_lpoint_h24" transform="translate(-3 3)">
      <rect id="사각형_5803" data-name="사각형 5803" width="30" height="30" transform="translate(9759.885 2047.983)" fill="#fff" opacity="0"/>
      <g id="그룹_3820" data-name="그룹 3820" transform="translate(9761.883 2048.012)">
        <path id="패스_15685" data-name="패스 15685" d="M337.3,491.652l-1.447-.7c-2.27-1.091-6.464-3.107-6.88-3.311a7.536,7.536,0,0,0-6.391,0c-.442.218-5.322,2.564-7.406,3.565l-.915.44a3.043,3.043,0,0,0-1.787,2.836v15.122a4,4,0,0,0,2.27,3.5h0c.242.108,5.926,2.651,6.259,2.794a11.557,11.557,0,0,0,9.549,0c.362-.157,6.017-2.686,6.258-2.793a3.993,3.993,0,0,0,2.271-3.5V494.487A3,3,0,0,0,337.3,491.652Z" transform="translate(-312.474 -486.934)" fill="#009bfa"/>
        <g id="그룹_3819" data-name="그룹 3819" transform="translate(8.671 9.038)">
          <g id="그룹_3817" data-name="그룹 3817" transform="translate(0)">
            <g id="그룹_3816" data-name="그룹 3816">
              <g id="그룹_3815" data-name="그룹 3815">
                <path id="패스_15686" data-name="패스 15686" d="M329.783,510.694a.551.551,0,0,1-.549-.55v-8.107a.55.55,0,0,0-.549-.549h-1.7a.552.552,0,0,0-.55.549v8.8a1.53,1.53,0,0,0,.389.938l.85.851a1.526,1.526,0,0,0,.938.388h5.869a.551.551,0,0,0,.55-.55v-1.217a.551.551,0,0,0-.55-.55Z" transform="translate(-326.437 -501.488)" fill="#fff"/>
              </g>
            </g>
          </g>
          <g id="그룹_3818" data-name="그룹 3818" transform="translate(10.065 8.913)">
            <path id="패스_15687" data-name="패스 15687" d="M343.891,518.665a1.052,1.052,0,0,1-.445-.1l-.5-.222-.107-.048a.346.346,0,0,1-.2-.3v-1.463a.254.254,0,0,1,.149-.238c.006,0,.751-.361.806-.388a.65.65,0,0,1,.289-.066.666.666,0,0,1,.294.066l.806.388a.252.252,0,0,1,.15.238V518a.346.346,0,0,1-.2.3l-.067.03c-.15.067-.5.225-.538.24A1.059,1.059,0,0,1,343.891,518.665Z" transform="translate(-342.644 -515.841)" fill="#ffcb00"/>
          </g>
        </g>
      </g>
    </g>
  </g>
</svg>
